<?xml version="1.0" encoding="UTF-8"?>
<svg width="1200pt" height="1200pt" version="1.1" viewBox="0 0 1200 1200" xmlns="http://www.w3.org/2000/svg">
 <g fill="currentColor" stroke="currentColor" stroke-width="60" stroke-linecap="round" stroke-linejoin="round">
  <path d="m215.62 948.71 929.82-920.7 7.3789 7.3672-920.69 929.84z" fill="currentColor"/>
  <path d="m249.25 941.48c-43.199-43.199-106.2-50.27-140.98-15.949l-15.254 14.449 157.74 157.74 14.438-15.254c34.344-34.773 27.266-97.773-15.945-140.98z" fill="currentColor"/>
  <path d="m178.33 1023.2c7.5117-7.4766 73.297-78.145 73.297-78.145l-16.43-16.738s-53.449 52.211-75.719 69.539c-1.8359 1.4297-3.6133 2.4492-5.3984 3.1914l23.387 23.387c0.28906-0.40625 0.46875-0.82422 0.86328-1.2344z" fill="currentColor"/>
  <path d="m148.43 1058.8c12.613-17.555 25.188-8.8789 30.012-14.941 0.35938-0.44531 0.48047-0.97266 0.58984-1.4883l-52.801-52.812c-15.191-7.1172-37.309-11.723-68.699 2.6406-14.375 27.742 116.81-35.195 33.816 90.926-17.555 26.664-51.695 60.527-61.934 74.051-9.9102 13.055-5.1484 21.383 5.6875 14.723 9.7812-6.0586 28.512-29.555 46.824-51.277 47.746-56.617 48.551-29.711 61.906-5.4492 18.938 34.414 13.402 42 38.172 31.355 26.016-11.203-46.141-70.184-33.574-87.727z" fill="currentColor"/>
  <path d="m1141.3 30.898 14.652-14.656 8.6797 8.6797-14.652 14.656z" fill="currentColor"/>
  <path d="m1153.9 16.41 2.4531-2.4531 10.539 10.539-2.4531 2.4531z" fill="currentColor"/>
 </g>
</svg>
