<?xml version="1.0" encoding="UTF-8"?>
<svg width="1200pt" height="1200pt" version="1.1" viewBox="0 0 1200 1200" xmlns="http://www.w3.org/2000/svg">
 <g fill="currentColor" stroke="currentColor" stroke-width="60" stroke-linecap="round" stroke-linejoin="round">
  <path d="m227.3 963.05 936.82-931.29 4.4883 4.4727-931.3 936.82z" fill="currentColor"/>
  <path d="m232.92 967.43c-28.992-28.992-67.668-40.273-98.867-31.98l130.85 130.86c8.3008-31.211-2.9922-69.887-31.98-98.879z" fill="currentColor"/>
  <path d="m1158.1 36.402 10.84-10.832 5.8438 5.8477-10.84 10.832z" fill="currentColor"/>
  <path d="m1167.5 25.723 1.8008-1.7969 7.0586 7.082-1.8008 1.7969z" fill="currentColor"/>
  <path d="m148.5 1075.3c10.934-15.277 21.898-7.7539 26.102-12.984 3.2266-4.0664-6.4336-11.652 0.097657-18.168 2.8906-2.9023 16.332-17.16 27.516-29.258l-16.598-16.609c-12.059 11.219-20.27 18.289-27.359 23.82-4.2969 3.3359-8.3633 5.207-13.297 2.0898-11.34-7.1289-34.355-25.754-75.527-6.9102-12.492 24.145 101.62-30.59 29.41 79.141-15.266 23.219-45.023 52.691-53.914 64.453-8.6172 11.375-4.4883 18.637 4.9453 12.828 8.5195-5.2578 24.816-25.727 40.754-44.605 41.531-49.273 42.238-25.848 53.844-4.7539 16.488 29.941 11.688 36.551 33.227 27.266 22.641-9.7344-40.18-61.043-29.199-76.309z" fill="currentColor"/>
 </g>
</svg>
