<?xml version="1.0" encoding="UTF-8"?>
<svg width="1200pt" height="1200pt" version="1.1" viewBox="0 0 1200 1200" xmlns="http://www.w3.org/2000/svg">
 <g fill="currentColor" stroke="currentColor" stroke-width="60" stroke-linecap="round" stroke-linejoin="round">
  <path d="m260.46 923.16 857.57-851.7 4.7656 4.7617-851.66 857.57z" fill="currentColor"/>
  <path d="m222.41 954.82c-43.488 44.605-87.168 104.46-110.3 137.69-2.2812 3.2656-4.3438 6.2656-6.2031 8.9766-6.0977 8.8906-9.9609 14.734-10.586 15.695l23.438 15.371c0.13281-0.21484 2.9883-4.5234 7.8242-11.617 2.4102-3.5273 5.3516-7.7891 8.7109-12.625 22.934-32.82 66.289-92.184 108.11-134.86-6.4648-6.5859-13.547-12.789-20.988-18.633z" fill="currentColor"/>
  <path d="m126 1133.4c-2.9883 3.4062-8.6875 4.3203-12.66 2.0508l-13.199-7.5977c-3.9609-2.2812-6.2383-7.7539-5.0508-12.168l10.465-19.922c1.8594-4.1523 6.6133-5.6289 10.523-3.2773l19.727 11.699c3.9375 2.3047 4.9922 7.2461 2.3398 10.945z" fill="currentColor"/>
  <path d="m276.9 911.81-0.44531 0.13281c-2.7617-2.1016-5.6055-4.1172-8.543-6.0469-39.719-26.242-85.801-32.219-121.5-19.117-1.1758 0.44531-2.9766 1.2461-2.9766 1.2461-1.7383 1.5586-1.8945 4.2109-0.34766 5.9531 0.58984 0.69531 2.1719 1.3203 2.1719 1.3203 37.656 18.215 186.36 100.38 125.72 190.05-40.285 59.594-117.61 36.395-149.41 4.6445-2.4375-2.4492-9.3242-9.5156-11.941-11.641l-0.035156 0.046875c-1.7773-1.4297-4.3789-1.3438-6.0469 0.28906-1.6445 1.6562-1.7773 4.2344-0.35938 6.0469l-0.046875 0.0625c9.0859 13.871 21.059 26.23 35.809 35.953 57.695 38.113 135.36 22.223 173.47-35.508 13.355-20.258 20.051-42.961 20.641-65.555 0.25391-5.3398 0.035156-10.754-0.58984-16.199-0.046875-0.53906-0.13281-1.0664-0.19141-1.6211-0.011719-0.21484-0.046875-0.39453-0.085938-0.63672-4.2852-35.164-23.387-68.355-55.297-89.426z" fill="currentColor"/>
 </g>
</svg>
